<svg t="1699518499897" class="icon" viewBox="0 0 1024 1024" version="1.1" xmlns="http://www.w3.org/2000/svg" p-id="1108"
     width="200" height="200">
    <path d="M76.3904 82.0736m135.936 0l525.5168 0q135.936 0 135.936 135.936l0 580.4544q0 135.936-135.936 135.936l-525.5168 0q-135.936 0-135.936-135.936l0-580.4544q0-135.936 135.936-135.936Z"
          fill="#A5ADF6" p-id="1109"></path>
    <path d="M642.4064 379.2384H229.3248a40.96 40.96 0 0 1 0-81.92h413.0816a40.96 40.96 0 1 1 0 81.92zM485.5296 611.9424h-256a40.96 40.96 0 0 1 0-81.92h256a40.96 40.96 0 0 1 0 81.92z"
          fill="#FFFFFF" p-id="1110"></path>
    <path d="M738.6112 724.6848m-221.5936 0a221.5936 221.5936 0 1 0 443.1872 0 221.5936 221.5936 0 1 0-443.1872 0Z"
          fill="#A5ADF6" p-id="1111"></path>
    <path d="M738.6112 503.1424a221.5424 221.5424 0 0 0-71.68 431.2576h70.7584a135.936 135.936 0 0 0 136.0896-135.68v-249.4976a220.16 220.16 0 0 0-135.168-46.08z"
          fill="#635DF7" p-id="1112"></path>
    <path d="M686.08 857.0368a40.96 40.96 0 0 1-31.2832-67.3792l59.9552-70.912v-97.7408a40.96 40.96 0 0 1 81.92 0v112.64a40.96 40.96 0 0 1-9.6768 26.4192l-69.632 82.3808a40.96 40.96 0 0 1-31.2832 14.592z"
          fill="#FFFFFF" p-id="1113"></path>
</svg>